<svg width="65" height="66" viewBox="0 0 65 66" fill="none" xmlns="http://www.w3.org/2000/svg">
<rect x="1" y="1.5" width="63" height="63" stroke="#7A9CA5" stroke-width="2"/>
<path d="M36.0504 26.5C37.0272 26.6906 37.9248 27.1683 38.6285 27.8719C39.3322 28.5756 39.8099 29.4733 40.0004 30.45M36.0504 22.5C38.0797 22.7254 39.972 23.6342 41.4167 25.077C42.8613 26.5198 43.7724 28.411 44.0004 30.44M43.0004 38.42V41.42C43.0016 41.6985 42.9445 41.9742 42.8329 42.2293C42.7214 42.4845 42.5577 42.7136 42.3525 42.9019C42.1473 43.0901 41.905 43.2335 41.6412 43.3227C41.3773 43.4119 41.0978 43.4451 40.8204 43.42C37.7433 43.0856 34.7874 42.0341 32.1904 40.35C29.7743 38.8147 27.7258 36.7662 26.1904 34.35C24.5004 31.7412 23.4487 28.771 23.1204 25.68C23.0954 25.4035 23.1283 25.1248 23.2169 24.8616C23.3055 24.5985 23.448 24.3567 23.6352 24.1516C23.8224 23.9466 24.0502 23.7827 24.3042 23.6705C24.5582 23.5583 24.8328 23.5003 25.1104 23.5H28.1104C28.5957 23.4952 29.0662 23.6671 29.4342 23.9835C29.8022 24.3 30.0425 24.7394 30.1104 25.22C30.237 26.1801 30.4719 27.1227 30.8104 28.03C30.945 28.3879 30.9741 28.7769 30.8943 29.1509C30.8146 29.5248 30.6293 29.8681 30.3604 30.14L29.0904 31.41C30.514 33.9135 32.5869 35.9864 35.0904 37.41L36.3604 36.14C36.6323 35.8711 36.9756 35.6858 37.3495 35.6061C37.7235 35.5263 38.1125 35.5555 38.4704 35.69C39.3777 36.0285 40.3204 36.2634 41.2804 36.39C41.7662 36.4585 42.2098 36.7032 42.527 37.0775C42.8441 37.4518 43.0126 37.9296 43.0004 38.42Z" stroke="#141414" stroke-width="2" stroke-linecap="round" stroke-linejoin="round"/>
</svg>
