<svg width="369" height="150" viewBox="0 0 369 150" fill="none" xmlns="http://www.w3.org/2000/svg">
<path d="M62.6938 147V124.6H0.09375V99.2L45.4938 3H76.6938L31.2938 99.2H62.6938V63.2H90.2938V99.2H103.094V124.6H90.2938V147H62.6938Z" fill="#7A9CA5"/>
<path d="M184.541 150C173.874 150 164.541 147.767 156.541 143.3C148.541 138.833 142.307 132.6 137.841 124.6C133.374 116.6 131.141 107.267 131.141 96.6V53.4C131.141 42.7333 133.374 33.4 137.841 25.4C142.307 17.4 148.541 11.1667 156.541 6.69999C164.541 2.23333 173.874 0 184.541 0C195.207 0 204.541 2.23333 212.541 6.69999C220.541 11.1667 226.774 17.4 231.241 25.4C235.707 33.4 237.941 42.7333 237.941 53.4V96.6C237.941 107.267 235.707 116.6 231.241 124.6C226.774 132.6 220.541 138.833 212.541 143.3C204.541 147.767 195.207 150 184.541 150ZM184.541 124.2C189.341 124.2 193.674 123.067 197.541 120.8C201.407 118.533 204.474 115.467 206.741 111.6C209.007 107.733 210.141 103.4 210.141 98.6V51.2C210.141 46.4 209.007 42.0667 206.741 38.2C204.474 34.3333 201.407 31.2667 197.541 29C193.674 26.7333 189.341 25.6 184.541 25.6C179.741 25.6 175.407 26.7333 171.541 29C167.674 31.2667 164.607 34.3333 162.341 38.2C160.074 42.0667 158.941 46.4 158.941 51.2V98.6C158.941 103.4 160.074 107.733 162.341 111.6C164.607 115.467 167.674 118.533 171.541 120.8C175.407 123.067 179.741 124.2 184.541 124.2Z" fill="#7A9CA5"/>
<path d="M328.506 147V124.6H265.906V99.2L311.306 3H342.506L297.106 99.2H328.506V63.2H356.106V99.2H368.906V124.6H356.106V147H328.506Z" fill="#7A9CA5"/>
</svg>
